<svg width="814" height="1245" viewBox="0 0 814 1245" fill="none" xmlns="http://www.w3.org/2000/svg">
<path d="M93.1778 -657.381C59.0336 -784.458 132.751 -842.867 173.877 -856.187L781.432 -1091.86L1592.36 998.63L984.806 1234.31C945.456 1252.21 851.634 1258.79 791.152 1141.93C715.55 995.852 659.534 1022.32 603.836 1017.06C548.138 1011.81 487.112 992.815 473.534 847.963C459.955 703.111 422.75 570.585 297.128 507.121C196.63 456.35 159.378 383.916 148.607 356.148C137.835 328.38 116.496 249.773 156.467 144.512C206.431 12.9365 144.534 -110.012 56.8801 -226.128C-30.7741 -342.245 1.48026 -397.423 39.0627 -438.865C76.6451 -480.307 135.858 -498.535 93.1778 -657.381Z" fill="black"/>
<path d="M93.1778 -657.381C59.0336 -784.458 132.751 -842.867 173.877 -856.187L781.432 -1091.86L1592.36 998.63L984.806 1234.31C945.456 1252.21 851.634 1258.79 791.152 1141.93C715.55 995.852 659.534 1022.32 603.836 1017.06C548.138 1011.81 487.112 992.815 473.534 847.963C459.955 703.111 422.75 570.585 297.128 507.121C196.63 456.35 159.378 383.916 148.607 356.148C137.835 328.38 116.496 249.773 156.467 144.512C206.431 12.9365 144.534 -110.012 56.8801 -226.128C-30.7741 -342.245 1.48026 -397.423 39.0627 -438.865C76.6451 -480.307 135.858 -498.535 93.1778 -657.381Z" fill="url(#paint0_linear_22_354)"/>
<defs>
<linearGradient id="paint0_linear_22_354" x1="210.719" y1="-755.302" x2="885.143" y2="1754.95" gradientUnits="userSpaceOnUse">
<stop stop-color="#E5312D"/>
<stop offset="0.505208" stop-color="#B63633"/>
<stop offset="1" stop-color="#3570BD"/>
</linearGradient>
</defs>
</svg>
