<svg width="892" height="1437" viewBox="0 0 892 1437" fill="none" xmlns="http://www.w3.org/2000/svg">
<path d="M52.0974 76.8722C-33.9162 -22.7069 7.06076 -107.363 38.301 -137.244L482.886 -613.701L2122.3 916.042L1677.71 1392.5C1650.06 1425.73 1568.44 1472.46 1463.15 1393.54C1331.54 1294.88 1292.62 1343.08 1240.18 1362.57C1187.73 1382.06 1124.52 1391.5 1049.3 1266.97C974.071 1142.44 882.931 1039.28 742.21 1036.77C629.634 1034.76 564.587 985.738 542.811 965.419C521.034 945.099 467.632 883.597 457.845 771.428C445.611 631.218 336.403 547.427 206.972 480.989C77.5404 414.552 82.587 350.838 98.405 297.176C114.223 243.513 159.615 201.346 52.0974 76.8722Z" fill="black"/>
<path d="M52.0974 76.8722C-33.9162 -22.7069 7.06076 -107.363 38.301 -137.244L482.886 -613.701L2122.3 916.042L1677.71 1392.5C1650.06 1425.73 1568.44 1472.46 1463.15 1393.54C1331.54 1294.88 1292.62 1343.08 1240.18 1362.57C1187.73 1382.06 1124.52 1391.5 1049.3 1266.97C974.071 1142.44 882.931 1039.28 742.21 1036.77C629.634 1034.76 564.587 985.738 542.811 965.419C521.034 945.099 467.632 883.597 457.845 771.428C445.611 631.218 336.403 547.427 206.972 480.989C77.5404 414.552 82.587 350.838 98.405 297.176C114.223 243.513 159.615 201.346 52.0974 76.8722Z" fill="url(#paint0_linear_22_353)"/>
<defs>
<linearGradient id="paint0_linear_22_353" x1="-765.041" y1="-405.529" x2="1226.03" y2="1199.73" gradientUnits="userSpaceOnUse">
<stop stop-color="#E5312D"/>
<stop offset="0.505208" stop-color="#B63633"/>
<stop offset="1" stop-color="#3570BD"/>
</linearGradient>
</defs>
</svg>
