<svg width="530" height="1515" viewBox="0 0 530 1515" fill="none" xmlns="http://www.w3.org/2000/svg">
<path d="M47.0018 -87.8511C-6.1774 -208.21 57.7384 -277.207 96.3437 -296.661L660.702 -622.493L1781.84 1319.37L1617.48 1495.2C1581.33 1518.91 1489.62 1539.76 1411.97 1433.53C1314.92 1300.74 1263.61 1335.46 1207.76 1338.79C1151.92 1342.11 762.5 1432.83 653.129 1331.6C546.358 1232.78 560.517 1075.26 426.666 1031.75C319.585 996.952 271.693 931.068 256.801 905.275C241.909 879.481 208.798 805.063 232.199 694.927C261.45 557.257 181.476 445.223 77.0927 343.879C-27.2906 242.536 -3.85526 183.074 26.9463 136.371C57.7478 89.6686 113.476 62.5978 47.0018 -87.8511Z" fill="black"/>
<path d="M47.0018 -87.8511C-6.1774 -208.21 57.7384 -277.207 96.3437 -296.661L660.702 -622.493L1781.84 1319.37L1617.48 1495.2C1581.33 1518.91 1489.62 1539.76 1411.97 1433.53C1314.92 1300.74 1263.61 1335.46 1207.76 1338.79C1151.92 1342.11 762.5 1432.83 653.129 1331.6C546.358 1232.78 560.517 1075.26 426.666 1031.75C319.585 996.952 271.693 931.068 256.801 905.275C241.909 879.481 208.798 805.063 232.199 694.927C261.45 557.257 181.476 445.223 77.0927 343.879C-27.2906 242.536 -3.85526 183.074 26.9463 136.371C57.7478 89.6686 113.476 62.5978 47.0018 -87.8511Z" fill="url(#paint0_linear_22_355)"/>
<defs>
<linearGradient id="paint0_linear_22_355" x1="611.133" y1="-594.042" x2="897.266" y2="2124.26" gradientUnits="userSpaceOnUse">
<stop stop-color="#E5312D"/>
<stop offset="0.505208" stop-color="#B63633"/>
<stop offset="1" stop-color="#3570BD"/>
</linearGradient>
</defs>
</svg>
